<svg xmlns="http://www.w3.org/2000/svg" width="320" height="50" fill="none"><ellipse cx="240.042" cy="46.276" fill="#F8D24E" rx="2.665" ry="2.779"/><ellipse cx="245.818" cy="42.571" fill="#F8D24E" rx="2.665" ry="2.779"/><ellipse cx="252.479" cy="38.403" fill="#F8D24E" rx="2.665" ry="2.779"/><ellipse cx="258.699" cy="34.698" fill="#F8D24E" rx="2.665" ry="2.779"/><ellipse cx="255.144" cy="44.423" fill="#F8D24E" rx="2.665" ry="2.779"/><ellipse cx="260.919" cy="40.718" fill="#F8D24E" rx="2.665" ry="2.779"/><ellipse cx="267.581" cy="36.55" fill="#F8D24E" rx="2.665" ry="2.779"/><ellipse cx="273.802" cy="32.846" fill="#F8D24E" rx="2.665" ry="2.779"/><ellipse cx="268.027" cy="43.034" fill="#F8D24E" rx="2.665" ry="2.779"/><ellipse cx="273.803" cy="39.329" fill="#F8D24E" rx="2.665" ry="2.779"/><ellipse cx="280.466" cy="35.161" fill="#F8D24E" rx="2.665" ry="2.779"/><ellipse cx="286.683" cy="31.457" fill="#F8D24E" rx="2.665" ry="2.779"/><ellipse cx="280.464" cy="41.182" fill="#F8D24E" rx="2.665" ry="2.779"/><ellipse cx="286.237" cy="37.477" fill="#F8D24E" rx="2.665" ry="2.779"/><ellipse cx="292.901" cy="33.309" fill="#F8D24E" rx="2.665" ry="2.779"/><ellipse cx="299.12" cy="29.604" fill="#F8D24E" rx="2.665" ry="2.779"/><ellipse cx="284.463" cy="46.276" fill="#F8D24E" rx="2.665" ry="2.779"/><ellipse cx="290.238" cy="42.571" fill="#F8D24E" rx="2.665" ry="2.779"/><ellipse cx="298.234" cy="46.739" fill="#F8D24E" rx="2.665" ry="2.779"/><ellipse cx="296.902" cy="38.403" fill="#F8D24E" rx="2.665" ry="2.779"/><ellipse cx="304.897" cy="42.571" fill="#F8D24E" rx="2.665" ry="2.779"/><ellipse cx="311.116" cy="46.739" fill="#F8D24E" rx="2.665" ry="2.779"/><ellipse cx="303.12" cy="34.698" fill="#F8D24E" rx="2.665" ry="2.779"/><ellipse cx="311.116" cy="38.865" fill="#F8D24E" rx="2.665" ry="2.779"/><ellipse cx="317.335" cy="43.034" fill="#F8D24E" rx="2.665" ry="2.779"/><ellipse cx="212.948" cy="15.711" fill="#F8D24E" rx="2.665" ry="2.779"/><ellipse cx="218.722" cy="12.006" fill="#F8D24E" rx="2.665" ry="2.779"/><ellipse cx="225.387" cy="7.838" fill="#F8D24E" rx="2.665" ry="2.779"/><ellipse cx="231.604" cy="4.133" fill="#F8D24E" rx="2.665" ry="2.779"/><ellipse cx="201.842" cy="15.247" fill="#F8D24E" rx="2.665" ry="2.779"/><ellipse cx="207.615" cy="11.542" fill="#F8D24E" rx="2.665" ry="2.779"/><ellipse cx="214.278" cy="7.375" fill="#F8D24E" rx="2.665" ry="2.779"/><ellipse cx="220.497" cy="3.67" fill="#F8D24E" rx="2.665" ry="2.779"/><ellipse cx="226.716" cy="46.276" fill="#F8D24E" rx="2.665" ry="2.779"/><ellipse cx="232.489" cy="42.571" fill="#F8D24E" rx="2.665" ry="2.779"/><ellipse cx="239.152" cy="38.403" fill="#F8D24E" rx="2.665" ry="2.779"/><ellipse cx="245.372" cy="34.698" fill="#F8D24E" rx="2.665" ry="2.779"/><ellipse cx="219.61" cy="43.498" fill="#F8D24E" rx="2.665" ry="2.779"/><ellipse cx="225.384" cy="39.793" fill="#F8D24E" rx="2.665" ry="2.779"/><ellipse cx="232.046" cy="35.624" fill="#F8D24E" rx="2.665" ry="2.779"/><ellipse cx="238.266" cy="31.92" fill="#F8D24E" rx="2.665" ry="2.779"/><ellipse cx="222.275" cy="33.772" fill="#F8D24E" rx="2.665" ry="2.779"/><ellipse cx="228.048" cy="30.067" fill="#F8D24E" rx="2.665" ry="2.779"/><ellipse cx="234.713" cy="25.899" fill="#F8D24E" rx="2.665" ry="2.779"/><ellipse cx="240.931" cy="22.194" fill="#F8D24E" rx="2.665" ry="2.779"/><ellipse cx="222.275" cy="17.563" fill="#F8D24E" rx="2.665" ry="2.779"/><ellipse cx="228.048" cy="13.858" fill="#F8D24E" rx="2.665" ry="2.779"/><ellipse cx="234.713" cy="9.69" fill="#F8D24E" rx="2.665" ry="2.779"/><ellipse cx="240.931" cy="5.985" fill="#F8D24E" rx="2.665" ry="2.779"/><ellipse cx="220.942" cy="26.363" fill="#F8D24E" rx="2.665" ry="2.779"/><ellipse cx="226.717" cy="22.657" fill="#F8D24E" rx="2.665" ry="2.779"/><ellipse cx="233.379" cy="18.49" fill="#F8D24E" rx="2.665" ry="2.779"/><ellipse cx="239.598" cy="14.785" fill="#F8D24E" rx="2.665" ry="2.779"/><ellipse cx="192.957" cy="12.932" fill="#F8D24E" rx="2.665" ry="2.779"/><ellipse cx="198.733" cy="9.227" fill="#F8D24E" rx="2.665" ry="2.779"/><ellipse cx="205.396" cy="5.059" fill="#F8D24E" rx="2.665" ry="2.779"/><path fill="#F8D24E" d="M204.951 15.71c1.472 0 2.666-1.244 2.666-2.778 0-1.535-1.194-2.779-2.666-2.779s-2.665 1.244-2.665 2.779c0 1.534 1.193 2.778 2.665 2.778Z"/><ellipse fill="#F8D24E" rx="2.707" ry="2.817" transform="matrix(.98748 -.15783 .14548 .98937 79.721 33.982)"/><ellipse fill="#F8D24E" rx="2.707" ry="2.817" transform="matrix(.98748 -.15783 .14548 .98937 84.967 29.34)"/><ellipse fill="#F8D24E" rx="2.707" ry="2.817" transform="matrix(.98748 -.15783 .14548 .98937 91.036 24.09)"/><ellipse fill="#F8D24E" rx="2.707" ry="2.817" transform="matrix(.98748 -.15783 .14548 .98937 96.728 19.377)"/><ellipse cx=".611" cy="29.792" fill="#F8D24E" rx="2.72" ry="2.82"/><ellipse cx="7.413" cy="25.562" fill="#F8D24E" rx="2.72" ry="2.82"/><ellipse cx="13.758" cy="21.802" fill="#F8D24E" rx="2.72" ry="2.82"/><ellipse cx="-2.56" cy="40.6" fill="#F8D24E" rx="2.72" ry="2.82"/><ellipse cx="3.333" cy="36.841" fill="#F8D24E" rx="2.72" ry="2.82"/><ellipse cx="10.134" cy="32.611" fill="#F8D24E" rx="2.72" ry="2.82"/><ellipse cx="16.479" cy="28.851" fill="#F8D24E" rx="2.72" ry="2.82"/><ellipse cx="4.238" cy="44.36" fill="#F8D24E" rx="2.72" ry="2.82"/><ellipse cx="10.132" cy="40.6" fill="#F8D24E" rx="2.72" ry="2.82"/><ellipse cx="16.931" cy="36.371" fill="#F8D24E" rx="2.72" ry="2.82"/><ellipse cx="23.276" cy="32.611" fill="#F8D24E" rx="2.72" ry="2.82"/><ellipse cx="11.943" cy="46.711" fill="#F8D24E" rx="2.72" ry="2.82"/><ellipse cx="17.836" cy="42.95" fill="#F8D24E" rx="2.72" ry="2.82"/><ellipse cx="24.638" cy="38.721" fill="#F8D24E" rx="2.72" ry="2.82"/><ellipse cx="30.982" cy="34.961" fill="#F8D24E" rx="2.72" ry="2.82"/><ellipse cx="21.917" cy="47.181" fill="#F8D24E" rx="2.72" ry="2.82"/><ellipse cx="27.81" cy="43.421" fill="#F8D24E" rx="2.72" ry="2.82"/><ellipse cx="34.61" cy="39.191" fill="#F8D24E" rx="2.72" ry="2.82"/><ellipse cx="40.955" cy="35.431" fill="#F8D24E" rx="2.72" ry="2.82"/><ellipse cx="33.704" cy="47.18" fill="#F8D24E" rx="2.72" ry="2.82"/><ellipse cx="39.596" cy="43.42" fill="#F8D24E" rx="2.72" ry="2.82"/><ellipse cx="46.396" cy="39.191" fill="#F8D24E" rx="2.72" ry="2.82"/><ellipse cx="52.742" cy="35.431" fill="#F8D24E" rx="2.72" ry="2.82"/><ellipse cx="43.674" cy="46.71" fill="#F8D24E" rx="2.72" ry="2.82"/><ellipse cx="49.566" cy="42.95" fill="#F8D24E" rx="2.72" ry="2.82"/><ellipse cx="56.367" cy="38.721" fill="#F8D24E" rx="2.72" ry="2.82"/><ellipse cx="62.712" cy="34.961" fill="#F8D24E" rx="2.72" ry="2.82"/><ellipse cx="55.006" cy="46.24" fill="#F8D24E" rx="2.72" ry="2.82"/><ellipse cx="60.898" cy="42.48" fill="#F8D24E" rx="2.72" ry="2.82"/><ellipse cx="67.699" cy="38.251" fill="#F8D24E" rx="2.72" ry="2.82"/><ellipse cx="74.044" cy="34.491" fill="#F8D24E" rx="2.72" ry="2.82"/><ellipse cx="65.432" cy="34.021" fill="#F8D24E" rx="2.72" ry="2.82"/><ellipse cx="71.324" cy="30.261" fill="#F8D24E" rx="2.72" ry="2.82"/><ellipse cx="78.124" cy="26.032" fill="#F8D24E" rx="2.72" ry="2.82"/><ellipse cx="84.47" cy="22.272" fill="#F8D24E" rx="2.72" ry="2.82"/></svg>