<svg xmlns="http://www.w3.org/2000/svg" width="768" height="68" fill="none"><ellipse cx="654.897" cy="63.125" fill="#F8D24E" rx="3.745" ry="3.842"/><ellipse cx="663.01" cy="58.002" fill="#F8D24E" rx="3.745" ry="3.842"/><ellipse cx="672.371" cy="52.239" fill="#F8D24E" rx="3.745" ry="3.842"/><ellipse cx="681.109" cy="47.116" fill="#F8D24E" rx="3.745" ry="3.842"/><ellipse cx="676.116" cy="60.563" fill="#F8D24E" rx="3.745" ry="3.842"/><ellipse cx="684.229" cy="55.441" fill="#F8D24E" rx="3.745" ry="3.842"/><ellipse cx="693.591" cy="49.678" fill="#F8D24E" rx="3.745" ry="3.842"/><ellipse cx="702.328" cy="44.555" fill="#F8D24E" rx="3.745" ry="3.842"/><ellipse cx="694.215" cy="58.642" fill="#F8D24E" rx="3.745" ry="3.842"/><ellipse cx="702.328" cy="53.519" fill="#F8D24E" rx="3.745" ry="3.842"/><ellipse cx="711.689" cy="47.756" fill="#F8D24E" rx="3.745" ry="3.842"/><ellipse cx="720.425" cy="42.634" fill="#F8D24E" rx="3.745" ry="3.842"/><ellipse cx="711.689" cy="56.081" fill="#F8D24E" rx="3.745" ry="3.842"/><ellipse cx="719.802" cy="50.958" fill="#F8D24E" rx="3.745" ry="3.842"/><ellipse cx="729.163" cy="45.195" fill="#F8D24E" rx="3.745" ry="3.842"/><ellipse cx="737.901" cy="40.073" fill="#F8D24E" rx="3.745" ry="3.842"/><ellipse cx="717.306" cy="63.125" fill="#F8D24E" rx="3.745" ry="3.842"/><ellipse cx="725.419" cy="58.002" fill="#F8D24E" rx="3.745" ry="3.842"/><ellipse cx="736.652" cy="63.765" fill="#F8D24E" rx="3.745" ry="3.842"/><ellipse cx="734.78" cy="52.239" fill="#F8D24E" rx="3.745" ry="3.842"/><ellipse cx="746.015" cy="58.002" fill="#F8D24E" rx="3.745" ry="3.842"/><ellipse cx="754.751" cy="63.765" fill="#F8D24E" rx="3.745" ry="3.842"/><ellipse cx="743.517" cy="47.116" fill="#F8D24E" rx="3.745" ry="3.842"/><ellipse cx="754.751" cy="52.879" fill="#F8D24E" rx="3.745" ry="3.842"/><ellipse cx="763.488" cy="58.642" fill="#F8D24E" rx="3.745" ry="3.842"/><ellipse cx="616.828" cy="20.864" fill="#F8D24E" rx="3.745" ry="3.842"/><ellipse cx="624.94" cy="15.741" fill="#F8D24E" rx="3.745" ry="3.842"/><ellipse cx="634.303" cy="9.978" fill="#F8D24E" rx="3.745" ry="3.842"/><ellipse cx="643.038" cy="4.856" fill="#F8D24E" rx="3.745" ry="3.842"/><ellipse cx="601.226" cy="20.222" fill="#F8D24E" rx="3.745" ry="3.842"/><ellipse cx="609.339" cy="15.1" fill="#F8D24E" rx="3.745" ry="3.842"/><ellipse cx="618.7" cy="9.338" fill="#F8D24E" rx="3.745" ry="3.842"/><ellipse cx="627.437" cy="4.215" fill="#F8D24E" rx="3.745" ry="3.842"/><ellipse cx="636.175" cy="63.125" fill="#F8D24E" rx="3.745" ry="3.842"/><ellipse cx="644.287" cy="58.002" fill="#F8D24E" rx="3.745" ry="3.842"/><ellipse cx="653.649" cy="52.239" fill="#F8D24E" rx="3.745" ry="3.842"/><ellipse cx="662.387" cy="47.116" fill="#F8D24E" rx="3.745" ry="3.842"/><ellipse cx="626.19" cy="59.283" fill="#F8D24E" rx="3.745" ry="3.842"/><ellipse cx="634.303" cy="54.16" fill="#F8D24E" rx="3.745" ry="3.842"/><ellipse cx="643.664" cy="48.397" fill="#F8D24E" rx="3.745" ry="3.842"/><ellipse cx="652.401" cy="43.275" fill="#F8D24E" rx="3.745" ry="3.842"/><ellipse cx="629.933" cy="45.836" fill="#F8D24E" rx="3.745" ry="3.842"/><ellipse cx="638.046" cy="40.714" fill="#F8D24E" rx="3.745" ry="3.842"/><ellipse cx="647.408" cy="34.95" fill="#F8D24E" rx="3.745" ry="3.842"/><ellipse cx="656.145" cy="29.828" fill="#F8D24E" rx="3.745" ry="3.842"/><ellipse cx="629.933" cy="23.425" fill="#F8D24E" rx="3.745" ry="3.842"/><ellipse cx="638.046" cy="18.302" fill="#F8D24E" rx="3.745" ry="3.842"/><ellipse cx="647.408" cy="12.539" fill="#F8D24E" rx="3.745" ry="3.842"/><ellipse cx="656.145" cy="7.417" fill="#F8D24E" rx="3.745" ry="3.842"/><ellipse cx="628.062" cy="35.591" fill="#F8D24E" rx="3.745" ry="3.842"/><ellipse cx="636.176" cy="30.468" fill="#F8D24E" rx="3.745" ry="3.842"/><ellipse cx="645.536" cy="24.705" fill="#F8D24E" rx="3.745" ry="3.842"/><ellipse cx="654.273" cy="19.583" fill="#F8D24E" rx="3.745" ry="3.842"/><ellipse cx="588.745" cy="17.021" fill="#F8D24E" rx="3.745" ry="3.842"/><ellipse cx="596.858" cy="11.899" fill="#F8D24E" rx="3.745" ry="3.842"/><ellipse cx="606.219" cy="6.136" fill="#F8D24E" rx="3.745" ry="3.842"/><path fill="#F8D24E" d="M605.595 20.863c2.068 0 3.745-1.72 3.745-3.842s-1.677-3.842-3.745-3.842-3.744 1.72-3.744 3.842 1.676 3.842 3.744 3.842Z"/><ellipse cx="3.745" cy="60.49" fill="#F8D24E" rx="3.745" ry="3.842"/><ellipse cx="11.857" cy="55.367" fill="#F8D24E" rx="3.745" ry="3.842"/><ellipse cx="21.219" cy="49.605" fill="#F8D24E" rx="3.745" ry="3.842"/><ellipse cx="29.956" cy="44.482" fill="#F8D24E" rx="3.745" ry="3.842"/><ellipse cx="51.176" cy="62.411" fill="#F8D24E" rx="3.745" ry="3.842"/><ellipse cx="59.288" cy="57.288" fill="#F8D24E" rx="3.745" ry="3.842"/><ellipse cx="68.65" cy="51.526" fill="#F8D24E" rx="3.745" ry="3.842"/><ellipse cx="77.386" cy="46.403" fill="#F8D24E" rx="3.745" ry="3.842"/><ellipse cx="70.522" cy="59.849" fill="#F8D24E" rx="3.745" ry="3.842"/><ellipse cx="78.635" cy="54.727" fill="#F8D24E" rx="3.745" ry="3.842"/><ellipse cx="87.996" cy="48.964" fill="#F8D24E" rx="3.745" ry="3.842"/><ellipse cx="96.733" cy="43.841" fill="#F8D24E" rx="3.745" ry="3.842"/><ellipse cx="106.095" cy="36.158" fill="#F8D24E" rx="3.745" ry="3.842"/><ellipse cx="86.123" cy="40.64" fill="#F8D24E" rx="3.745" ry="3.842"/><ellipse cx="33.701" cy="61.771" fill="#F8D24E" rx="3.745" ry="3.842"/><ellipse cx="41.814" cy="56.648" fill="#F8D24E" rx="3.745" ry="3.842"/><ellipse cx="51.176" cy="50.885" fill="#F8D24E" rx="3.745" ry="3.842"/><ellipse cx="59.911" cy="45.763" fill="#F8D24E" rx="3.745" ry="3.842"/><ellipse cx="18.099" cy="61.13" fill="#F8D24E" rx="3.745" ry="3.842"/><ellipse cx="26.212" cy="56.007" fill="#F8D24E" rx="3.745" ry="3.842"/><ellipse cx="35.573" cy="50.245" fill="#F8D24E" rx="3.745" ry="3.842"/><ellipse cx="44.309" cy="45.122" fill="#F8D24E" rx="3.745" ry="3.842"/></svg>