<svg aria-hidden="true" style="width:0;height:0;position:absolute;overflow:hidden" xmlns="http://www.w3.org/2000/svg"><defs><symbol id="icon-arrow-black" viewBox="0 0 82 32"><path d="M81.414 17.414c.362-.362.586-.862.586-1.414s-.224-1.052-.586-1.414L68.686 1.858a2 2 0 1 0-2.829 2.827l.001.001L77.172 16 65.858 27.314a2 2 0 0 0 2.829 2.827l-.001.001 12.728-12.728zM0 18h80v-4H0v4z"/></symbol><symbol id="icon-btn-arrow" viewBox="0 0 32 32"><path d="M10.586 3.272a2 2 0 0 0 0 2.828l9.9 9.9-9.9 9.9a1.998 1.998 0 0 0 .025 2.804 2.001 2.001 0 0 0 2.804.025l11.314-11.314a2 2 0 0 0 0-2.828L13.415 3.273a2 2 0 0 0-2.828 0z"/></symbol><symbol id="icon-arrow-hero" viewBox="0 0 82 32"><path d="M81.414 17.414c.362-.362.586-.862.586-1.414s-.224-1.052-.586-1.414L68.686 1.858a2 2 0 1 0-2.829 2.827l.001.001L77.172 16 65.858 27.314a2 2 0 0 0 2.829 2.827l-.001.001 12.728-12.728zM0 18h80v-4H0v4z"/></symbol><symbol id="icon-mob-menu-open" viewBox="0 0 32 32"><path fill="#fff" style="fill:var(--color1,#fff)" d="M26.733 14H5.266c-.7 0-1.267.425-1.267.95v.1c0 .525.567.95 1.267.95h21.467c.7 0 1.267-.425 1.267-.95v-.1c0-.525-.567-.95-1.267-.95zM26.733 20H5.266c-.7 0-1.267.425-1.267.95v.1c0 .525.567.95 1.267.95h21.467c.7 0 1.267-.425 1.267-.95v-.1c0-.525-.567-.95-1.267-.95zM26.733 8H5.266c-.7 0-1.267.425-1.267.95v.1c0 .525.567.95 1.267.95h21.467c.7 0 1.267-.425 1.267-.95v-.1c0-.525-.567-.95-1.267-.95z"/></symbol><symbol id="icon-mob-menu-close" viewBox="0 0 32 32"><path d="M23.884 6.706 16 14.59 8.116 6.706a.996.996 0 0 0-1.672.736c0 .26.099.497.262.674l-.001-.001 7.88 7.884-7.882 7.882a.998.998 0 0 0 1.41 1.412l7.886-7.882 7.884 7.884a.996.996 0 0 0 1.672-.736.992.992 0 0 0-.262-.674l.001.001-7.884-7.884 7.884-7.886a.998.998 0 0 0-1.41-1.412v.002z"/></symbol><symbol id="icon-cow" viewBox="0 0 50 50"><path d="M9.638.3c-.407.352-1.572 2.783-1.991 4.11-.498 1.644-.667 2.877-.6 4.579.09 2.431.701 4.274 2.048 6.2.351.505.633.939.633.975 0 .023-.215.047-.486.047-1.165 0-3.348.387-5.023.892C1.561 17.901 0 19.299 0 20.86c0 .552.498 1.491 1.029 1.973 1.029.928 3.281 1.808 5.701 2.231.837.153 3.326.411 3.88.423.102 0 .136.54.136 2.313 0 1.526.057 2.712.17 3.44.407 2.607 1.674 5.366 3.348 7.315l.577.669-.385.622c-.566.881-.78 1.55-.848 2.548-.17 2.395 1.323 4.521 4.208 6.012 5.498 2.853 14.038 1.738 17.24-2.254 1.561-1.949 1.742-4.18.509-6.2l-.385-.622.69-.834c1.29-1.55 2.127-3.1 2.76-5.061.532-1.667.735-3.276.735-5.824 0-1.162.034-2.125.091-2.125.52-.012 3.02-.282 3.812-.423 2.432-.423 4.638-1.292 5.701-2.231.532-.481 1.029-1.421 1.029-1.973 0-1.738-1.765-3.147-5.045-3.992-1.075-.282-3.1-.622-4.084-.681l-.464-.035.509-.704c.633-.857 1.425-2.525 1.731-3.617.86-3.159.328-6.834-1.516-10.345C40.36.029 39.828-.311 39.206.264c-.238.223-.339.528-.566 1.632-.701 3.511-2.002 6.294-3.903 8.348l-.837.916H16.004l-.747-.81c-1.855-2.043-3.201-4.932-3.903-8.454-.226-1.104-.328-1.409-.566-1.632-.373-.341-.735-.329-1.154.035zm1.448 6.963a18.63 18.63 0 0 0 2.229 3.687l.701.904-.735.552c-.69.528-1.335 1.28-1.833 2.137l-.215.387-.543-.74c-1.855-2.56-2.319-5.695-1.335-8.947.475-1.573.464-1.562.894-.2.204.658.588 1.656.837 2.219zm29.446-2.477c.464 1.397.645 2.513.645 3.957 0 2.137-.566 3.945-1.753 5.566l-.532.728-.396-.669c-.464-.822-1.256-1.679-1.98-2.172-.305-.2-.543-.399-.543-.423 0-.035.215-.305.486-.599 1.256-1.397 2.602-3.91 3.269-6.071.204-.669.407-1.221.441-1.221s.204.411.362.904zm-5.781 8.583c1.256.528 2.455 2.043 2.647 3.323.102.705.339 1.151.645 1.221a49.53 49.53 0 0 0 2.081.176c3.575.235 6.391.998 7.591 2.043.554.493.498.904-.17 1.409-1.335 1.01-4.219 1.773-7.161 1.902-1.946.082-2.353.141-2.613.411-.192.2-.215.411-.215 2.536 0 2.877-.147 4.532-.509 5.871-.509 1.82-1.516 3.757-2.692 5.131l-.486.564-1.007-.599c-1.222-.728-2.364-1.198-3.733-1.515-4.287-1.022-9.027-.399-12.217 1.609l-.735.47-.464-.552c-.633-.74-1.629-2.325-2.025-3.217-.871-2.02-1.131-3.663-1.131-7.28 0-3.511.181-3.252-2.421-3.393-3.326-.176-5.86-.775-7.455-1.785-1.176-.752-.984-1.421.656-2.208 1.572-.763 3.733-1.221 6.731-1.409 2.33-.153 2.387-.188 2.602-1.315.317-1.703 1.572-3.112 3.156-3.558.396-.117 2.613-.141 9.4-.129l8.88.023.645.27zm-6.357 24.306c2.772.681 4.842 1.949 5.735 3.523.215.364.305.74.351 1.315.045.716.011.892-.26 1.479-1.256 2.665-5.871 4.427-10.566 4.027-5.645-.47-9.355-3.617-7.896-6.705.792-1.667 3.473-3.264 6.301-3.734.464-.07.927-.153 1.018-.176s1.109-.023 2.262 0c1.573.035 2.33.106 3.054.27z"/><path d="M17.172 19.252c-.701.235-1.177.54-1.81 1.174-.554.528-.6 1.151-.136 1.526.43.352.837.305 1.357-.153.656-.575 1.165-.81 1.799-.81.633-.012 1.12.211 1.799.81.52.458.927.505 1.358.153.226-.188.294-.34.294-.693 0-.364-.079-.528-.475-.927-1.12-1.127-2.783-1.562-4.185-1.08zM30.362 19.24c-.724.27-1.652.881-2.025 1.339-.362.446-.373.951 0 1.327.373.399.826.376 1.369-.07 1.335-1.104 2.33-1.139 3.563-.117.317.27.679.481.792.481.554 0 1.007-.493 1.007-1.08 0-.376-.939-1.245-1.787-1.656-.939-.458-2.059-.54-2.918-.223zM18.812 40.974c-.328.317-.441.775-.272 1.139.124.293.317.411 1.097.622.351.094.498.211.622.505.158.388.17.388 1.041.423l.871.035v-.329c-.011-.47-.272-1.151-.611-1.62-.396-.54-1.086-.892-1.867-.963-.532-.047-.667-.023-.882.188zM29.616 40.892c-.566.153-1.38.916-1.606 1.515-.102.27-.204.751-.215 1.068-.023.505.023.622.294.869.667.587 1.55.129 1.55-.81 0-.458.339-.775.939-.892.633-.117.86-.376.871-.975 0-.787-.701-1.092-1.833-.775z"/></symbol><symbol id="icon-ice-crema" viewBox="0 0 50 50"><path d="M25.169.167c.126.335.377 1.956.377 2.458 0 1.245-.46 2.406-1.308 3.316-.701.753-1.402 1.172-3.086 1.851-1.872.764-2.646 1.224-3.525 2.092-.889.889-1.412 1.862-1.6 3.002-.209 1.245 0 2.123.638 2.625l.324.251-.513.324c-1.036.68-2.918 2.28-3.243 2.772-.628.941-.565 1.82.146 2.176l.335.167-.377.356c-.565.533-.68.9-.596 1.862.052.638.031.983-.115 1.506-.178.68-.178.69.052 1.172.23.471.879 1.067 1.464 1.318.283.126.293.167.356 1.13.031.554.084 2.322.126 3.933.031 1.611.105 3.086.167 3.264.052.188.251.439.429.565.607.418 1.025.868 1.297 1.391.303.596.638 2.061 1.653 7.123l.711 3.556.439.418c.837.826 2.437 1.203 5.073 1.203 2.646 0 4.226-.366 5.063-1.192l.45-.429.649-3.295c1.433-7.207 1.558-7.605 2.678-8.494.345-.283.68-.628.743-.785.073-.178.147-1.548.199-3.619.042-1.841.105-3.661.147-4.048l.063-.701.68-.512c.858-.659 1.192-1.255 1.192-2.176-.011-1.088-.722-2.28-2.019-3.347l-.617-.502.303-.429c1.266-1.747.471-4.163-1.883-5.774l-.711-.492.262-.272c1.161-1.245 1.349-4.958.377-7.542-.586-1.538-1.925-3.211-3.567-4.446-.805-.607-3.023-1.946-3.222-1.946-.042 0-.042.073-.01.167zm3.013 3.651c.554.544 1.224 1.287 1.485 1.663 1.559 2.176 1.956 4.906 1.015 6.914-.377.816-1.506 2.029-2.552 2.751-1.6 1.109-5.199 2.971-7.709 3.996-4.038 1.642-6.381 1.956-6.653.879-.105-.408.199-.732 1.485-1.59 1.161-.795 6.37-4.665 6.464-4.822.031-.042-.502.199-1.172.533-2.27 1.151-3.347.931-3.295-.669.031-1.161.868-2.479 2.029-3.232.293-.188 1.203-.607 2.04-.941 2.751-1.109 3.588-1.674 4.519-3.065.554-.826 1.161-2.354 1.203-3.002.01-.23.052-.408.084-.408s.502.45 1.056.994zm2.856 11.883c.764.429 1.559 1.161 1.904 1.736.607 1.036.293 2.071-1.015 3.389-1.423 1.443-3.849 2.824-6.517 3.703-2.458.805-4.812 1.182-8.18 1.297l-2.092.073 1.36.084c1.757.115 5.157.01 6.475-.199 3.504-.554 6.485-1.663 8.619-3.19.481-.345.983-.628 1.119-.628.345 0 1.852 1.443 2.155 2.05.167.345.209.596.178.931-.157 1.391-1.851 2.134-5.941 2.626-5 .596-11.538.011-14.331-1.276-1.318-.607-1.538-.952-1.203-1.872.105-.293.126-.638.084-1.13-.052-.649-.042-.732.188-.973.523-.565 1.402-.889 4.623-1.705 1.13-.293 2.667-.753 3.4-1.025 1.778-.649 5.115-2.333 6.663-3.368 1.454-.962 1.663-1.004 2.51-.523zM17.146 28.504c2.197.638 4.142.826 7.762.753 2.72-.052 4.393-.22 6.81-.649.492-.084.921-.157.973-.157.115 0 .084 4.017-.042 5.073-.136 1.119-.439 1.987-.764 2.197-.335.22-2.008.45-4.247.575-4.592.251-9.31 0-10.774-.586-.795-.324-.879-.743-.889-4.623 0-2.584.021-2.939.157-2.887.084.031.544.167 1.015.303zm2.479 8.891c.753.094 1.569.188 1.82.22l.45.052-.398.439c-.513.554-1.297 1.663-1.58 2.228-.324.648-.429.69-.91.429l-.408-.23-.23-1.423a41.34 41.34 0 0 0-.293-1.642c-.094-.272-.188-.272 1.548-.073zm11.151-.115c0 .021-.052.293-.105.596-.063.314-.324 2.019-.586 3.797-.533 3.713-.889 5.46-1.213 6.046-.45.784-1.527 1.245-3.274 1.391-.68.052-2.73-.084-2.845-.188-.084-.094 1.716-2.322 1.998-2.469.262-.147.335-.126 1.224.335 1.036.544 1.559.627 1.559.282s-.272-.68-.941-1.14c-.617-.439-.837-.69-.837-.983 0-.084.303-.554.669-1.046s.9-1.276 1.172-1.747l.512-.847.471.063c.952.136 1.203.126 1.172-.084-.021-.105-.199-.408-.398-.659-.199-.262-.356-.523-.356-.575 0-.199.973-2.029 1.287-2.416.272-.335.492-.502.492-.356zm-6.538.837c.523.345 2.49 2.05 2.615 2.259.052.094-1.967 3.253-2.364 3.703-.042.052-.262-.052-.481-.22-.22-.178-1.036-.743-1.82-1.255l-1.412-.931.847-1.433c1.506-2.521 1.475-2.479 1.799-2.479.167 0 .533.157.816.356zm3.965.377c-.366.45-.669.732-.795.732-.272 0-.711-.241-1.454-.785l-.617-.45 1.234-.073c.669-.031 1.318-.073 1.433-.094.837-.136.837-.126.199.669zm-7.908 5.031c.962.377 2.594 1.266 3.065 1.663.335.272.335.293.199.627-.084.188-.366.69-.649 1.119-.272.418-.586.941-.701 1.161-.335.648-.439.701-1.13.513-.743-.22-1.14-.596-1.349-1.276-.283-.952-.732-3.64-.68-4.059.021-.157.46-.063 1.245.251z"/></symbol><symbol id="icon-weight" viewBox="0 0 50 50"><path d="M22.152.855c-6.21.921-11.323 4.369-13.204 8.883-.6 1.426-.762 2.302-.762 4.021.012 1.269.058 1.741.254 2.426.404 1.348.693 2.033 1.293 2.999l.554.898-.623.764c-4.929 6.132-5.471 14.757-1.362 21.551 1.535 2.549 4.04 5.054 6.487 6.514l.727.427 19.911-.168.473-.258c1.651-.932 3.982-3.01 5.286-4.694 1.962-2.561 3.243-5.548 3.786-8.782.185-1.157.185-4.582-.012-5.671-.589-3.358-1.847-6.233-3.832-8.782-.381-.483-.681-.887-.681-.921 0-.023.208-.371.45-.764a12.124 12.124 0 0 0 1.35-3.066c.312-1.123.312-3.931 0-5.054-1.108-3.987-4.432-7.311-9.13-9.142C31.801 1.519 29.55.969 28.096.789c-1.35-.157-4.686-.124-5.944.067zm7.029 1.83c6.164 1.202 10.677 4.975 11.508 9.624.185 1.044.069 2.819-.242 3.807-.312.966-.889 2.1-1.57 3.066-.277.393-.508.842-.508.988s.242.528.589.91c2.886 3.201 4.409 7.21 4.409 11.545-.012 4.93-1.904 9.254-5.552 12.645-.623.584-1.512 1.314-1.985 1.628l-.866.584-19.08.079-.739-.472c-2.678-1.741-5.09-4.616-6.429-7.67-1.685-3.863-1.858-8.344-.485-12.365.727-2.089 1.697-3.796 3.174-5.593.6-.719.877-1.146.877-1.348 0-.168-.3-.719-.693-1.292-1.385-2.01-1.951-4.245-1.616-6.356.346-2.134 1.316-3.886 3.105-5.626 2.332-2.257 5.586-3.751 9.407-4.312 1.581-.236 5.079-.146 6.695.157z"/><path d="M22.671 4.662c-4.732.775-8.437 3.403-9.649 6.851-.277.775-.323 1.078-.323 2.19s.046 1.415.323 2.19c.173.494.496 1.179.716 1.527.6.966.866.999 2.055.281 1.777-1.089 3.821-1.887 5.944-2.325 1.431-.292 4.178-.404 5.737-.225 2.435.281 5.079 1.157 7.191 2.403.6.348 1.212.64 1.362.64.877 0 1.997-2.527 1.997-4.492 0-4.369-4.178-8.108-10.1-9.04-1.258-.202-4.04-.202-5.252 0zm5.714 1.797c1.985.427 3.809 1.235 5.183 2.302 1.847 1.426 2.839 3.414 2.678 5.335-.058.764-.346 1.797-.519 1.909-.046.022-.692-.247-1.431-.607a22.917 22.917 0 0 0-5.044-1.718c-1.073-.225-1.524-.258-3.924-.247-2.366 0-2.863.034-3.89.247-1.777.382-3.163.854-4.871 1.662-1.72.82-1.627.831-1.939-.18-.404-1.314-.15-3.055.635-4.369.416-.696 1.558-1.853 2.389-2.426 1.581-1.089 2.966-1.583 5.944-2.123.612-.112 4.005.045 4.79.213zM26.504 20.946c-.323.404-.323.786.012 1.112.219.213.439.27 1.235.326 1.547.112 3.024.562 4.352 1.325.946.562 2.389 1.92 3.036 2.897.958 1.404 1.616 3.414 1.616 4.897 0 .517.046.674.289.898.369.371.854.371 1.212 0 .254-.258.265-.326.196-1.426-.323-5.435-4.975-9.973-10.538-10.276l-1.154-.067-.254.314z"/></symbol><symbol id="icon-github-icon" viewBox="0 0 32 32"><path d="M16 0C7.211 0 0 7.211 0 16c0 7.499 5.262 14.312 12.25 16v-5.293a3.921 3.921 0 0 1-2.062-.06l.028.007c-.946-.278-1.714-.909-2.285-1.869-.363-.613-1.008-1.28-1.68-1.23l-.165-1.867c1.454-.125 2.71.886 3.456 2.139.333.558.715.885 1.205 1.029.472.141.981.074 1.573-.136.149-1.186.693-1.629 1.104-2.256-4.168-.621-5.829-2.832-6.488-4.576-.874-2.318-.405-5.213 1.139-7.043.03-.035.085-.128.064-.192-.709-2.141.154-3.91.186-4.098.818.24.95-.243 3.552 1.336l.448.27c.189.112.128.048.317.032a13.246 13.246 0 0 1 3.349-.469h.01c1.136.014 2.272.176 3.403.483l.146.016c-.013-.003.04-.01.128-.062 3.248-1.968 3.131-1.325 4.003-1.608.032.189.882 1.987.182 4.099-.096.291 2.816 2.957 1.202 7.235-.659 1.744-2.32 3.957-6.486 4.578.534.816 1.176 1.248 1.173 2.928v6.606c6.986-1.688 12.25-8.501 12.25-16 0-8.789-7.211-16-16-16z"/></symbol><symbol id="icon-telegram-icon" viewBox="0 0 44 32"><path d="m17.342 21.048-.674 8.86c.966 0 1.384-.388 1.886-.852l4.526-4.04 9.38 6.414c1.72.894 2.934.422 3.398-1.478L42.016 3.02c.546-2.374-.92-3.302-2.594-2.72L3.226 13.234C.756 14.13.794 15.414 2.808 16l9.252 2.684L33.554 6.132c1.012-.626 1.932-.28 1.174.346l-17.386 14.57z"/></symbol><symbol id="icon-facebook-icon" viewBox="0 0 16 32"><path d="M14.143 15.971H10.11v14.865H3.998V15.971H1.092v-5.222h2.906V7.367c0-2.417 1.142-6.204 6.167-6.204l4.527.019v5.072h-3.284c-.538 0-1.297.272-1.297 1.425v3.073h4.567l-.534 5.219z"/></symbol><symbol id="icon-modal-about-close" viewBox="0 0 32 32"><path d="m17.254 16 7.369-7.369a.886.886 0 0 0-.047-1.207.89.89 0 0 0-1.207-.047L16 14.746 8.631 7.368A.892.892 0 0 0 7.369 8.63l7.378 7.369-7.378 7.369a.891.891 0 0 0-.05 1.304.906.906 0 0 0 .663.26.88.88 0 0 0 .641-.31l7.378-7.369 7.369 7.369a.886.886 0 0 0 1.207-.047.893.893 0 0 0 .047-1.207l-7.369-7.369z"/></symbol></defs><symbol id="icon-close-broducts" viewBox="0 0 32 32"><path d="m17.253 16 7.37-7.37a.89.89 0 0 0-1.256-1.252l.001-.001L16 14.747 8.63 7.369a.893.893 0 0 0-1.262 1.262l-.001-.001L14.745 16l-7.376 7.368a.89.89 0 1 0 1.252 1.256l.001-.001 7.376-7.37 7.37 7.37a.89.89 0 0 0 1.254-1.256l.001.001L17.253 16z"/></symbol></svg>