<svg aria-hidden="true" style="position: absolute; width: 0; height: 0; overflow: hidden;" version="1.1" xmlns="http://www.w3.org/2000/svg" xmlns:xlink="http://www.w3.org/1999/xlink">
<defs>
<symbol id="icon-arrow-black" viewBox="0 0 82 32">
<path d="M81.414 17.414c0.362-0.362 0.586-0.862 0.586-1.414s-0.224-1.052-0.586-1.414l-12.728-12.728c-0.364-0.377-0.874-0.611-1.439-0.611-1.105 0-2 0.895-2 2 0 0.565 0.234 1.074 0.61 1.438l0.001 0.001 11.314 11.314-11.314 11.314c-0.347 0.359-0.561 0.849-0.561 1.389 0 1.105 0.895 2 2 2 0.54 0 1.030-0.214 1.39-0.562l-0.001 0.001 12.728-12.728zM0 18h80v-4h-80v4z"></path>
</symbol>
<symbol id="icon-btn-arrow" viewBox="0 0 32 32">
<path d="M10.586 3.272c-0.375 0.375-0.586 0.884-0.586 1.414s0.211 1.039 0.586 1.414l9.9 9.9-9.9 9.9c-0.364 0.377-0.566 0.882-0.561 1.407s0.215 1.026 0.586 1.397 0.872 0.581 1.397 0.586c0.524 0.005 1.030-0.197 1.407-0.561l11.314-11.314c0.375-0.375 0.586-0.884 0.586-1.414s-0.211-1.039-0.586-1.414l-11.314-11.314c-0.375-0.375-0.884-0.586-1.414-0.586s-1.039 0.211-1.414 0.586z"></path>
</symbol>
<symbol id="icon-arrow-hero" viewBox="0 0 82 32">
<path d="M81.414 17.414c0.362-0.362 0.586-0.862 0.586-1.414s-0.224-1.052-0.586-1.414l-12.728-12.728c-0.364-0.377-0.874-0.611-1.439-0.611-1.105 0-2 0.895-2 2 0 0.565 0.234 1.074 0.61 1.438l0.001 0.001 11.314 11.314-11.314 11.314c-0.347 0.359-0.561 0.849-0.561 1.389 0 1.105 0.895 2 2 2 0.54 0 1.030-0.214 1.39-0.562l-0.001 0.001 12.728-12.728zM0 18h80v-4h-80v4z"></path>
</symbol>
<symbol id="icon-mob-menu-open" viewBox="0 0 32 32">
<path stroke-linejoin="miter" stroke-linecap="round" stroke-miterlimit="4" stroke-width="2" d="M6 10h20M6 16h20M6 22h20"></path>
</symbol>
<symbol id="icon-mob-menu-close" viewBox="0 0 32 32">
<path d="M23.884 6.706l-7.884 7.884-7.884-7.884c-0.177-0.162-0.414-0.262-0.674-0.262-0.551 0-0.998 0.447-0.998 0.998 0 0.26 0.099 0.497 0.262 0.674l-0.001-0.001 7.88 7.884-7.882 7.882c-0.181 0.181-0.293 0.43-0.293 0.706 0 0.551 0.447 0.998 0.998 0.998 0.275 0 0.524-0.111 0.705-0.292v0l7.886-7.882 7.884 7.884c0.177 0.162 0.414 0.262 0.674 0.262 0.551 0 0.998-0.447 0.998-0.998 0-0.26-0.099-0.497-0.262-0.674l0.001 0.001-7.884-7.884 7.884-7.886c0.181-0.181 0.293-0.43 0.293-0.706 0-0.551-0.447-0.998-0.998-0.998-0.275 0-0.524 0.111-0.705 0.292v0 0.002z"></path>
</symbol>

<symbol id="icon-cow" viewBox="0 0 50 50">
<path d="M9.638 0.3c-0.407 0.352-1.572 2.783-1.991 4.11-0.498 1.644-0.667 2.877-0.6 4.579 0.090 2.431 0.701 4.274 2.048 6.2 0.351 0.505 0.633 0.939 0.633 0.975 0 0.023-0.215 0.047-0.486 0.047-1.165 0-3.348 0.387-5.023 0.892-2.658 0.798-4.219 2.196-4.219 3.757 0 0.552 0.498 1.491 1.029 1.973 1.029 0.928 3.281 1.808 5.701 2.231 0.837 0.153 3.326 0.411 3.88 0.423 0.102 0 0.136 0.54 0.136 2.313 0 1.526 0.057 2.712 0.17 3.44 0.407 2.607 1.674 5.366 3.348 7.315l0.577 0.669-0.385 0.622c-0.566 0.881-0.78 1.55-0.848 2.548-0.17 2.395 1.323 4.521 4.208 6.012 5.498 2.853 14.038 1.738 17.24-2.254 1.561-1.949 1.742-4.18 0.509-6.2l-0.385-0.622 0.69-0.834c1.29-1.55 2.127-3.1 2.76-5.061 0.532-1.667 0.735-3.276 0.735-5.824 0-1.162 0.034-2.125 0.091-2.125 0.52-0.012 3.020-0.282 3.812-0.423 2.432-0.423 4.638-1.292 5.701-2.231 0.532-0.481 1.029-1.421 1.029-1.973 0-1.738-1.765-3.147-5.045-3.992-1.075-0.282-3.1-0.622-4.084-0.681l-0.464-0.035 0.509-0.704c0.633-0.857 1.425-2.525 1.731-3.617 0.86-3.159 0.328-6.834-1.516-10.345-0.769-1.456-1.301-1.796-1.923-1.221-0.238 0.223-0.339 0.528-0.566 1.632-0.701 3.511-2.002 6.294-3.903 8.348l-0.837 0.916h-17.896l-0.747-0.81c-1.855-2.043-3.201-4.932-3.903-8.454-0.226-1.104-0.328-1.409-0.566-1.632-0.373-0.341-0.735-0.329-1.154 0.035zM11.086 7.263c0.6 1.315 1.346 2.548 2.229 3.687l0.701 0.904-0.735 0.552c-0.69 0.528-1.335 1.28-1.833 2.137l-0.215 0.387-0.543-0.74c-1.855-2.56-2.319-5.695-1.335-8.947 0.475-1.573 0.464-1.562 0.894-0.2 0.204 0.658 0.588 1.656 0.837 2.219zM40.532 4.786c0.464 1.397 0.645 2.513 0.645 3.957 0 2.137-0.566 3.945-1.753 5.566l-0.532 0.728-0.396-0.669c-0.464-0.822-1.256-1.679-1.98-2.172-0.305-0.2-0.543-0.399-0.543-0.423 0-0.035 0.215-0.305 0.486-0.599 1.256-1.397 2.602-3.91 3.269-6.071 0.204-0.669 0.407-1.221 0.441-1.221s0.204 0.411 0.362 0.904zM34.751 13.369c1.256 0.528 2.455 2.043 2.647 3.323 0.102 0.705 0.339 1.151 0.645 1.221 0.136 0.023 1.075 0.106 2.081 0.176 3.575 0.235 6.391 0.998 7.591 2.043 0.554 0.493 0.498 0.904-0.17 1.409-1.335 1.010-4.219 1.773-7.161 1.902-1.946 0.082-2.353 0.141-2.613 0.411-0.192 0.2-0.215 0.411-0.215 2.536 0 2.877-0.147 4.532-0.509 5.871-0.509 1.82-1.516 3.757-2.692 5.131l-0.486 0.564-1.007-0.599c-1.222-0.728-2.364-1.198-3.733-1.515-4.287-1.022-9.027-0.399-12.217 1.609l-0.735 0.47-0.464-0.552c-0.633-0.74-1.629-2.325-2.025-3.217-0.871-2.020-1.131-3.663-1.131-7.28 0-3.511 0.181-3.252-2.421-3.393-3.326-0.176-5.86-0.775-7.455-1.785-1.176-0.752-0.984-1.421 0.656-2.208 1.572-0.763 3.733-1.221 6.731-1.409 2.33-0.153 2.387-0.188 2.602-1.315 0.317-1.703 1.572-3.112 3.156-3.558 0.396-0.117 2.613-0.141 9.4-0.129l8.88 0.023 0.645 0.27zM28.394 37.675c2.772 0.681 4.842 1.949 5.735 3.523 0.215 0.364 0.305 0.74 0.351 1.315 0.045 0.716 0.011 0.892-0.26 1.479-1.256 2.665-5.871 4.427-10.566 4.027-5.645-0.47-9.355-3.617-7.896-6.705 0.792-1.667 3.473-3.264 6.301-3.734 0.464-0.070 0.927-0.153 1.018-0.176s1.109-0.023 2.262 0c1.573 0.035 2.33 0.106 3.054 0.27z"></path>
<path d="M17.172 19.252c-0.701 0.235-1.177 0.54-1.81 1.174-0.554 0.528-0.6 1.151-0.136 1.526 0.43 0.352 0.837 0.305 1.357-0.153 0.656-0.575 1.165-0.81 1.799-0.81 0.633-0.012 1.12 0.211 1.799 0.81 0.52 0.458 0.927 0.505 1.358 0.153 0.226-0.188 0.294-0.34 0.294-0.693 0-0.364-0.079-0.528-0.475-0.927-1.12-1.127-2.783-1.562-4.185-1.080z"></path>
<path d="M30.362 19.24c-0.724 0.27-1.652 0.881-2.025 1.339-0.362 0.446-0.373 0.951 0 1.327 0.373 0.399 0.826 0.376 1.369-0.070 1.335-1.104 2.33-1.139 3.563-0.117 0.317 0.27 0.679 0.481 0.792 0.481 0.554 0 1.007-0.493 1.007-1.080 0-0.376-0.939-1.245-1.787-1.656-0.939-0.458-2.059-0.54-2.918-0.223z"></path>
<path d="M18.812 40.974c-0.328 0.317-0.441 0.775-0.272 1.139 0.124 0.293 0.317 0.411 1.097 0.622 0.351 0.094 0.498 0.211 0.622 0.505 0.158 0.388 0.17 0.388 1.041 0.423l0.871 0.035v-0.329c-0.011-0.47-0.272-1.151-0.611-1.62-0.396-0.54-1.086-0.892-1.867-0.963-0.532-0.047-0.667-0.023-0.882 0.188z"></path>
<path d="M29.616 40.892c-0.566 0.153-1.38 0.916-1.606 1.515-0.102 0.27-0.204 0.751-0.215 1.068-0.023 0.505 0.023 0.622 0.294 0.869 0.667 0.587 1.55 0.129 1.55-0.81 0-0.458 0.339-0.775 0.939-0.892 0.633-0.117 0.86-0.376 0.871-0.975 0-0.787-0.701-1.092-1.833-0.775z"></path>
</symbol>

<symbol id="icon-ice-crema" viewBox="0 0 50 50">
<path d="M25.169 0.167c0.126 0.335 0.377 1.956 0.377 2.458 0 1.245-0.46 2.406-1.308 3.316-0.701 0.753-1.402 1.172-3.086 1.851-1.872 0.764-2.646 1.224-3.525 2.092-0.889 0.889-1.412 1.862-1.6 3.002-0.209 1.245 0 2.123 0.638 2.625l0.324 0.251-0.513 0.324c-1.036 0.68-2.918 2.28-3.243 2.772-0.628 0.941-0.565 1.82 0.146 2.176l0.335 0.167-0.377 0.356c-0.565 0.533-0.68 0.9-0.596 1.862 0.052 0.638 0.031 0.983-0.115 1.506-0.178 0.68-0.178 0.69 0.052 1.172 0.23 0.471 0.879 1.067 1.464 1.318 0.283 0.126 0.293 0.167 0.356 1.13 0.031 0.554 0.084 2.322 0.126 3.933 0.031 1.611 0.105 3.086 0.167 3.264 0.052 0.188 0.251 0.439 0.429 0.565 0.607 0.418 1.025 0.868 1.297 1.391 0.303 0.596 0.638 2.061 1.653 7.123l0.711 3.556 0.439 0.418c0.837 0.826 2.437 1.203 5.073 1.203 2.646 0 4.226-0.366 5.063-1.192l0.45-0.429 0.649-3.295c1.433-7.207 1.558-7.605 2.678-8.494 0.345-0.283 0.68-0.628 0.743-0.785 0.073-0.178 0.147-1.548 0.199-3.619 0.042-1.841 0.105-3.661 0.147-4.048l0.063-0.701 0.68-0.512c0.858-0.659 1.192-1.255 1.192-2.176-0.011-1.088-0.722-2.28-2.019-3.347l-0.617-0.502 0.303-0.429c1.266-1.747 0.471-4.163-1.883-5.774l-0.711-0.492 0.262-0.272c1.161-1.245 1.349-4.958 0.377-7.542-0.586-1.538-1.925-3.211-3.567-4.446-0.805-0.607-3.023-1.946-3.222-1.946-0.042 0-0.042 0.073-0.010 0.167zM28.182 3.818c0.554 0.544 1.224 1.287 1.485 1.663 1.559 2.176 1.956 4.906 1.015 6.914-0.377 0.816-1.506 2.029-2.552 2.751-1.6 1.109-5.199 2.971-7.709 3.996-4.038 1.642-6.381 1.956-6.653 0.879-0.105-0.408 0.199-0.732 1.485-1.59 1.161-0.795 6.37-4.665 6.464-4.822 0.031-0.042-0.502 0.199-1.172 0.533-2.27 1.151-3.347 0.931-3.295-0.669 0.031-1.161 0.868-2.479 2.029-3.232 0.293-0.188 1.203-0.607 2.040-0.941 2.751-1.109 3.588-1.674 4.519-3.065 0.554-0.826 1.161-2.354 1.203-3.002 0.010-0.23 0.052-0.408 0.084-0.408s0.502 0.45 1.056 0.994zM31.038 15.701c0.764 0.429 1.559 1.161 1.904 1.736 0.607 1.036 0.293 2.071-1.015 3.389-1.423 1.443-3.849 2.824-6.517 3.703-2.458 0.805-4.812 1.182-8.18 1.297l-2.092 0.073 1.36 0.084c1.757 0.115 5.157 0.010 6.475-0.199 3.504-0.554 6.485-1.663 8.619-3.19 0.481-0.345 0.983-0.628 1.119-0.628 0.345 0 1.852 1.443 2.155 2.050 0.167 0.345 0.209 0.596 0.178 0.931-0.157 1.391-1.851 2.134-5.941 2.626-5 0.596-11.538 0.011-14.331-1.276-1.318-0.607-1.538-0.952-1.203-1.872 0.105-0.293 0.126-0.638 0.084-1.13-0.052-0.649-0.042-0.732 0.188-0.973 0.523-0.565 1.402-0.889 4.623-1.705 1.13-0.293 2.667-0.753 3.4-1.025 1.778-0.649 5.115-2.333 6.663-3.368 1.454-0.962 1.663-1.004 2.51-0.523zM17.146 28.504c2.197 0.638 4.142 0.826 7.762 0.753 2.72-0.052 4.393-0.22 6.81-0.649 0.492-0.084 0.921-0.157 0.973-0.157 0.115 0 0.084 4.017-0.042 5.073-0.136 1.119-0.439 1.987-0.764 2.197-0.335 0.22-2.008 0.45-4.247 0.575-4.592 0.251-9.31 0-10.774-0.586-0.795-0.324-0.879-0.743-0.889-4.623 0-2.584 0.021-2.939 0.157-2.887 0.084 0.031 0.544 0.167 1.015 0.303zM19.625 37.395c0.753 0.094 1.569 0.188 1.82 0.22l0.45 0.052-0.398 0.439c-0.513 0.554-1.297 1.663-1.58 2.228-0.324 0.648-0.429 0.69-0.91 0.429l-0.408-0.23-0.23-1.423c-0.126-0.774-0.262-1.517-0.293-1.642-0.094-0.272-0.188-0.272 1.548-0.073zM30.776 37.28c0 0.021-0.052 0.293-0.105 0.596-0.063 0.314-0.324 2.019-0.586 3.797-0.533 3.713-0.889 5.46-1.213 6.046-0.45 0.784-1.527 1.245-3.274 1.391-0.68 0.052-2.73-0.084-2.845-0.188-0.084-0.094 1.716-2.322 1.998-2.469 0.262-0.147 0.335-0.126 1.224 0.335 1.036 0.544 1.559 0.627 1.559 0.282s-0.272-0.68-0.941-1.14c-0.617-0.439-0.837-0.69-0.837-0.983 0-0.084 0.303-0.554 0.669-1.046s0.9-1.276 1.172-1.747l0.512-0.847 0.471 0.063c0.952 0.136 1.203 0.126 1.172-0.084-0.021-0.105-0.199-0.408-0.398-0.659-0.199-0.262-0.356-0.523-0.356-0.575 0-0.199 0.973-2.029 1.287-2.416 0.272-0.335 0.492-0.502 0.492-0.356zM24.238 38.117c0.523 0.345 2.49 2.050 2.615 2.259 0.052 0.094-1.967 3.253-2.364 3.703-0.042 0.052-0.262-0.052-0.481-0.22-0.22-0.178-1.036-0.743-1.82-1.255l-1.412-0.931 0.847-1.433c1.506-2.521 1.475-2.479 1.799-2.479 0.167 0 0.533 0.157 0.816 0.356zM28.203 38.494c-0.366 0.45-0.669 0.732-0.795 0.732-0.272 0-0.711-0.241-1.454-0.785l-0.617-0.45 1.234-0.073c0.669-0.031 1.318-0.073 1.433-0.094 0.837-0.136 0.837-0.126 0.199 0.669zM20.295 43.525c0.962 0.377 2.594 1.266 3.065 1.663 0.335 0.272 0.335 0.293 0.199 0.627-0.084 0.188-0.366 0.69-0.649 1.119-0.272 0.418-0.586 0.941-0.701 1.161-0.335 0.648-0.439 0.701-1.13 0.513-0.743-0.22-1.14-0.596-1.349-1.276-0.283-0.952-0.732-3.64-0.68-4.059 0.021-0.157 0.46-0.063 1.245 0.251z"></path>
</symbol>

<symbol id="icon-weight" viewBox="0 0 50 50">
<path d="M22.152 0.855c-6.21 0.921-11.323 4.369-13.204 8.883-0.6 1.426-0.762 2.302-0.762 4.021 0.012 1.269 0.058 1.741 0.254 2.426 0.404 1.348 0.693 2.033 1.293 2.999l0.554 0.898-0.623 0.764c-4.929 6.132-5.471 14.757-1.362 21.551 1.535 2.549 4.040 5.054 6.487 6.514l0.727 0.427 19.911-0.168 0.473-0.258c1.651-0.932 3.982-3.010 5.286-4.694 1.962-2.561 3.243-5.548 3.786-8.782 0.185-1.157 0.185-4.582-0.012-5.671-0.589-3.358-1.847-6.233-3.832-8.782-0.381-0.483-0.681-0.887-0.681-0.921 0-0.023 0.208-0.371 0.45-0.764 0.566-0.898 1.073-2.055 1.35-3.066 0.312-1.123 0.312-3.931 0-5.054-1.108-3.987-4.432-7.311-9.13-9.142-1.316-0.517-3.567-1.067-5.021-1.247-1.35-0.157-4.686-0.124-5.944 0.067zM29.181 2.685c6.164 1.202 10.677 4.975 11.508 9.624 0.185 1.044 0.069 2.819-0.242 3.807-0.312 0.966-0.889 2.1-1.57 3.066-0.277 0.393-0.508 0.842-0.508 0.988s0.242 0.528 0.589 0.91c2.886 3.201 4.409 7.21 4.409 11.545-0.012 4.93-1.904 9.254-5.552 12.645-0.623 0.584-1.512 1.314-1.985 1.628l-0.866 0.584-19.080 0.079-0.739-0.472c-2.678-1.741-5.090-4.616-6.429-7.67-1.685-3.863-1.858-8.344-0.485-12.365 0.727-2.089 1.697-3.796 3.174-5.593 0.6-0.719 0.877-1.146 0.877-1.348 0-0.168-0.3-0.719-0.693-1.292-1.385-2.010-1.951-4.245-1.616-6.356 0.346-2.134 1.316-3.886 3.105-5.626 2.332-2.257 5.586-3.751 9.407-4.312 1.581-0.236 5.079-0.146 6.695 0.157z"></path>
<path d="M22.671 4.662c-4.732 0.775-8.437 3.403-9.649 6.851-0.277 0.775-0.323 1.078-0.323 2.19s0.046 1.415 0.323 2.19c0.173 0.494 0.496 1.179 0.716 1.527 0.6 0.966 0.866 0.999 2.055 0.281 1.777-1.089 3.821-1.887 5.944-2.325 1.431-0.292 4.178-0.404 5.737-0.225 2.435 0.281 5.079 1.157 7.191 2.403 0.6 0.348 1.212 0.64 1.362 0.64 0.877 0 1.997-2.527 1.997-4.492 0-4.369-4.178-8.108-10.1-9.040-1.258-0.202-4.040-0.202-5.252 0zM28.385 6.459c1.985 0.427 3.809 1.235 5.183 2.302 1.847 1.426 2.839 3.414 2.678 5.335-0.058 0.764-0.346 1.797-0.519 1.909-0.046 0.022-0.692-0.247-1.431-0.607-1.535-0.741-3.278-1.336-5.044-1.718-1.073-0.225-1.524-0.258-3.924-0.247-2.366 0-2.863 0.034-3.89 0.247-1.777 0.382-3.163 0.854-4.871 1.662-1.72 0.82-1.627 0.831-1.939-0.18-0.404-1.314-0.15-3.055 0.635-4.369 0.416-0.696 1.558-1.853 2.389-2.426 1.581-1.089 2.966-1.583 5.944-2.123 0.612-0.112 4.005 0.045 4.79 0.213z"></path>
<path d="M26.504 20.946c-0.323 0.404-0.323 0.786 0.012 1.112 0.219 0.213 0.439 0.27 1.235 0.326 1.547 0.112 3.024 0.562 4.352 1.325 0.946 0.562 2.389 1.92 3.036 2.897 0.958 1.404 1.616 3.414 1.616 4.897 0 0.517 0.046 0.674 0.289 0.898 0.369 0.371 0.854 0.371 1.212 0 0.254-0.258 0.265-0.326 0.196-1.426-0.323-5.435-4.975-9.973-10.538-10.276l-1.154-0.067-0.254 0.314z"></path>
</symbol>

<symbol id="icon-github-icon" viewBox="0 0 32 32">
<path d="M32 16c0 8.837-7.163 16-16 16s-16-7.163-16-16c0-8.837 7.163-16 16-16s16 7.163 16 16z"></path>
<path d="M16 6.588c-5.17 0-9.412 4.242-9.412 9.412 0 4.411 3.096 8.419 7.206 9.412v-3.113c-0.408 0.088-0.781 0.091-1.196-0.031-0.556-0.164-1.008-0.535-1.344-1.099-0.214-0.36-0.593-0.753-0.988-0.724l-0.097-1.098c0.856-0.073 1.594 0.521 2.033 1.258 0.196 0.328 0.421 0.52 0.709 0.605 0.278 0.083 0.577 0.043 0.925-0.080 0.088-0.697 0.408-0.958 0.649-1.327-2.452-0.365-3.429-1.666-3.816-2.692-0.514-1.364-0.238-3.066 0.67-4.143 0.018-0.021 0.050-0.075 0.038-0.113-0.417-1.259 0.090-2.3 0.109-2.41 0.481 0.141 0.559-0.143 2.089 0.786l0.264 0.159c0.111 0.066 0.075 0.028 0.186 0.019 0.59-0.166 1.269-0.266 1.97-0.276l0.006-0c0.668 0.008 1.336 0.104 2.002 0.284l0.086 0.009c-0.008-0.002 0.024-0.006 0.075-0.037 1.911-1.158 1.842-0.779 2.355-0.946 0.019 0.111 0.519 1.169 0.106 2.411-0.056 0.171 1.656 1.739 0.708 4.256-0.388 1.026-1.365 2.328-3.816 2.693 0.314 0.48 0.692 0.734 0.69 1.722v3.886c4.109-0.993 7.206-5 7.206-9.412 0-5.17-4.242-9.412-9.412-9.412z"></path>
</symbol>

<symbol id="icon-telegram-icon" viewBox="0 0 32 32">
<path d="M32 16c0 8.837-7.163 16-16 16s-16-7.163-16-16c0-8.837 7.163-16 16-16s16 7.163 16 16z"></path>
<path d="M12.867 18.376l-0.317 4.169c0.455 0 0.651-0.183 0.888-0.401l2.13-1.901 4.414 3.018c0.809 0.421 1.381 0.199 1.599-0.696l2.898-12.673c0.257-1.117-0.433-1.554-1.221-1.28l-17.033 6.086c-1.163 0.422-1.145 1.026-0.198 1.301l4.354 1.264 10.115-5.907c0.476-0.295 0.909-0.132 0.552 0.163l-8.182 6.856z"></path>
</symbol>

<symbol id="icon-facebook-icon" viewBox="0 0 32 32">
<path d="M16 32c8.837 0 16-7.163 16-16s-7.163-16-16-16-16 7.163-16 16 7.163 16 16 16z"></path>
<path d="M20.446 15.981h-2.611v9.619h-3.955v-9.619h-1.88v-3.379h1.88v-2.187c0-1.564 0.739-4.014 3.991-4.014l2.929 0.012v3.281h-2.125c-0.348 0-0.839 0.176-0.839 0.922v1.989h2.955l-0.345 3.377z"></path>
</symbol>

</defs>
</svg>
