<svg width="36" height="36" viewBox="0 0 36 36" fill="none" xmlns="http://www.w3.org/2000/svg">
<path d="M15.9495 0.615292C11.4785 1.27834 7.79691 3.76071 6.4423 7.01123C6.01016 8.03814 5.89381 8.66884 5.89381 9.90598C5.90212 10.8197 5.93536 11.1593 6.07664 11.6525C6.36751 12.6228 6.57527 13.1161 7.00742 13.8115L7.40632 14.4583L6.95755 15.0082C3.40897 19.4231 3.01837 25.633 5.97691 30.525C7.08221 32.3605 8.88559 34.1637 10.6474 35.2148L11.171 35.5221L18.3346 35.4655L25.5066 35.4008L25.8473 35.2148C27.0357 34.5437 28.7144 33.0478 29.6535 31.8349C31.0663 29.9913 31.9888 27.8405 32.3794 25.5118C32.5123 24.6789 32.5123 22.2127 32.3711 21.4284C31.9472 19.0107 31.0414 16.9407 29.612 15.1052C29.3377 14.7575 29.1217 14.4664 29.1217 14.4422C29.1217 14.426 29.2712 14.1753 29.4458 13.8923C29.853 13.2455 30.2186 12.4126 30.4181 11.6849C30.6425 10.8763 30.6425 8.85482 30.4181 8.04623C29.6203 5.17574 27.2269 2.78231 23.8445 1.46431C22.8971 1.09236 21.2765 0.696152 20.2294 0.566776C19.2571 0.453575 16.8554 0.477833 15.9495 0.615292ZM21.0106 1.93329C25.4484 2.79848 28.6978 5.51534 29.2962 8.8629C29.4291 9.61489 29.346 10.8925 29.1217 11.604C28.8973 12.2994 28.4818 13.1161 27.9914 13.8115C27.792 14.0945 27.6258 14.4179 27.6258 14.523C27.6258 14.6281 27.8003 14.9031 28.0496 15.178C30.1272 17.4825 31.2242 20.3691 31.2242 23.4903C31.2159 27.04 29.853 30.1531 27.2269 32.595C26.7781 33.0155 26.1382 33.5411 25.7975 33.7675L25.1742 34.1879L18.3014 34.2122L11.4369 34.2445L10.905 33.9049C8.977 32.6516 7.24011 30.5816 6.27609 28.3823C5.06276 25.6007 4.9381 22.3744 5.92705 19.4797C6.45061 17.9757 7.14869 16.7467 8.21244 15.4529C8.64458 14.9354 8.84404 14.6281 8.84404 14.4826C8.84404 14.3613 8.62796 13.9651 8.34541 13.5527C7.34815 12.1053 6.94093 10.4963 7.18194 8.97611C7.43125 7.43979 8.12933 6.17839 9.41746 4.92507C11.0962 3.29981 13.4397 2.22438 16.1905 1.82009C17.3291 1.65029 19.8471 1.71497 21.0106 1.93329Z" fill="black"/>
<path d="M16.3233 3.35641C12.916 3.91434 10.2484 5.80644 9.37576 8.28881C9.17631 8.84673 9.14307 9.06505 9.14307 9.86556C9.14307 10.6661 9.17631 10.8844 9.37576 11.4423C9.50042 11.7981 9.73311 12.2913 9.89101 12.542C10.3232 13.2374 10.5143 13.2616 11.3703 12.7441C12.6501 11.9598 14.1211 11.3857 15.6502 11.0704C16.6807 10.8601 18.6586 10.7793 19.7805 10.9086C21.534 11.1108 23.4371 11.7415 24.9579 12.639C25.3901 12.8897 25.8306 13.0999 25.9386 13.0999C26.5702 13.0999 27.3763 11.2806 27.3763 9.86556C27.3763 6.72014 24.3679 4.02754 20.1046 3.35641C19.1988 3.21086 17.1959 3.21086 16.3233 3.35641ZM20.437 4.65015C21.8664 4.95742 23.1795 5.5396 24.1685 6.30776C25.4981 7.33467 26.2128 8.76587 26.0965 10.1486C26.0549 10.6984 25.8472 11.4423 25.7225 11.5232C25.6893 11.5393 25.2239 11.3453 24.692 11.0865C23.5867 10.5529 22.3318 10.1243 21.0603 9.84938C20.2874 9.68767 19.9633 9.66341 18.2348 9.67149C16.5311 9.67149 16.1737 9.69575 15.4341 9.84938C14.1543 10.1243 13.157 10.4639 11.9271 11.0461C10.6888 11.6364 10.7553 11.6445 10.5309 10.9167C10.2401 9.97067 10.4229 8.71736 10.988 7.77131C11.2872 7.26998 12.1099 6.43714 12.7083 6.02476C13.8468 5.24042 14.8441 4.88464 16.9882 4.49652C17.4286 4.41566 19.8719 4.52886 20.437 4.65015Z" fill="black"/>
<path d="M19.0827 15.0808C18.85 15.3719 18.85 15.6468 19.091 15.8813C19.2489 16.035 19.4068 16.0754 19.9802 16.1158C21.0938 16.1967 22.1576 16.5201 23.1133 17.07C23.7947 17.4743 24.8335 18.4526 25.2989 19.1561C25.9887 20.1669 26.4624 21.6142 26.4624 22.6816C26.4624 23.0535 26.4956 23.1667 26.6702 23.3284C26.9361 23.5953 27.2851 23.5953 27.5428 23.3284C27.7256 23.1425 27.7339 23.0939 27.684 22.3015C27.4513 18.388 24.1022 15.1213 20.0966 14.9029L19.2655 14.8544L19.0827 15.0808Z" fill="black"/>
</svg>
